<?xml version="1.0" standalone="no"?><!DOCTYPE svg PUBLIC "-//W3C//DTD SVG 1.1//EN" "http://www.w3.org/Graphics/SVG/1.1/DTD/svg11.dtd"><svg t="1687225203021" class="icon" viewBox="0 0 1024 1024" version="1.1" xmlns="http://www.w3.org/2000/svg" p-id="7969" xmlns:xlink="http://www.w3.org/1999/xlink" width="200" height="200"><path d="M484.907968 833.438896c-1.744737 12.892635-2.692319 32.285311-4.656043 44.98454-3.919263 25.319665-9.706059 48.996924-12.483312 48.771797-7.786337-0.62524-30.939663-7.327896-43.855834-9.30697-5.435803-0.832971-11.742439-1.493004-17.251919-1.675152-6.502088-0.225127-14.351869 0.61296-19.258623 5.420453-2.227738 2.190899-3.273557 4.835122-3.273557 4.835122 7.030114 0.237407 4.371564-2.597151 9.570983-1.13894 5.048993 3.742231 8.220219 3.27151 11.202133 4.321422 16.430204-0.36225 33.830503 2.303462 33.830503 2.303462s-30.752398 4.206812-37.795814 0.826831c-2.705622-1.299599-8.635681-2.666736-15.013949-3.540639-8.809643-1.200338-26.061562-0.610914-34.344203 3.91517-7.53665 4.119831-10.673084 13.617136-7.881504 21.355377 4.743024-9.632381 16.33299-9.290597 16.33299-9.290597s13.013385 4.859681 24.722054 6.075369c11.701506 1.217734 31.91692-1.722224 44.7369 1.680269 10.903328-0.636496 24.381293 1.429559 24.381293 1.429559s-16.167215 2.409886-19.47454 16.571421c-0.402159 9.151427 5.562692 18.691711 5.562692 18.691711s3.657296-7.496741 9.591449-12.343119c10.574846-8.627495 42.188868-2.682086 46.145993-10.200316 6.41613-3.324722 7.210215-25.929556 7.210215-25.929556s23.552415 15.683191 22.896476 23.070438c5.661953-2.880607 4.973268-5.858428 4.582365-8.79327-0.399089-2.935865-4.122901-10.122545-11.732206-17.610076-7.605212-7.506974-15.440667-20.783349-15.031345-29.92045 0.391926-9.140171 6.680143-11.633968 6.668886-19.691481 0.013303-8.051373-1.540076-10.585079-0.569982-19.654642 0.337691-3.064802 2.608407-23.178909 4.449335-37.511335 11.106965-2.563382 15.548114-9.121751 18.037818-17.278525 4.306072-14.08888 9.751085-26.787086 16.477276-37.754882 14.287401-2.444679 34.825157-2.673899 55.505152-4.754281 5.163603 14.539134 17.532305 43.062771 23.00597 57.511855 9.93221 26.211988 17.408485 51.370994 14.923898 51.982932-6.952342 1.733481-30.192649 2.084475-42.225707 4.021593-5.070482 0.816598-10.786671 2.064009-15.57472 3.542686-5.652743 1.741667-11.902074 4.933359-13.560854 11.164271-0.751107 2.832512-0.25071 5.768377-0.25071 5.768377 6.111185-1.889023 2.358721-3.8814 7.54893-4.01443 6.262634 2.180666 8.719592 0.75827 11.805884 0.896416 13.804401-5.305843 30.022781-7.919367 30.022781-7.919367s-23.987321 13.430894-31.761378 12.216229c-2.975774-0.468674-8.751315-0.037862-14.636349 1.02433-8.135284 1.463328-22.51683 7.253194-27.201525 14.216793-4.26207 6.347568-1.958608 16.675798 4.475941 23.48897-1.006933-10.95347 9.03477-14.106276 9.03477-14.106276s13.639648 0.88209 24.245194-1.440815c10.609639-2.322905 26.284643-11.325953 38.986943-11.827373 8.950859-3.916193 21.508873-5.939269 21.508873-5.939269s-12.503778 7.258311-7.895831 22.262026c4.444219 9.160637 14.524808 16.795525 14.524808 16.795525s-0.813528-8.508791 1.706875-15.090697c4.487198-11.718903 34.524305-15.369036 33.95637-23.99346 3.723811-5.226025-7.443529-27.811416-7.443529-27.811416s28.27702 8.410554 31.587416 15.902178c3.315512-4.552689 1.168616-7.28594-0.703011-10.067286-1.880837-2.787486-8.812713-8.765641-19.222807-13.881149-10.412141-5.126764-24.037463-15.886829-28.477588-25.047466-4.452405-9.16166-0.415462-13.515828-4.637624-21.475104-4.211928-7.967462-6.862291-10.004865-10.785647-19.257599-1.3743-3.247974-9.385764-27.928073-15.065114-43.332924 1.976004-0.465604 3.921309-0.967024 5.834892-1.51654 18.337647-5.253654 178.237427-75.382874 159.170163-215.440747 39.319517-14.048971 75.130118-74.18049 62.174038-97.262184-4.235464 4.484128-20.150946 7.201006-36.502355 6.344498 53.159734-11.384281 98.734722-110.675682 84.739986-136.15703 1.054005 0.832971-5.566786 6.633071-16.344247 14.142092 13.883195-17.97949 22.482037-56.295144 14.774495-73.218582-9.156544-4.912893-20.228717-2.859118-30.112832 1.125637 6.02011-12.8077 10.534937-39.541575-2.476401-54.43068-13.629415-2.797719-27.894304 5.856381-37.787628 14.409175 10.731412-22.706141 0.943488-77.643358-30.142507-60.538795-10.1952 5.606695-19.6045 16.649192-24.672936 26.182312-9.108448 17.125029-49.588395 127.872343-97.18646 154.682965-57.768705-10.310833-180.583868 30.612205-230.481302 0.564865-19.123546-16.367783-30.483268-45.973054-39.371706-91.396593-5.016247-51.097772-50.817386-111.450325-81.459267-120.794134-10.339486-3.151783-16.172331-8.468882-25.057699-12.574387-2.543939-1.173732-5.218862-2.27481-7.967462-3.202948 3.215228-8.944719 4.697999-27.375487 3.001357-38.57455-3.202948-21.128203-22.981411-7.573489-26.170033-11.673877-8.369621-10.780531-20.075221-0.723477-23.393803 8.480138-1.725294 4.789073-2.635013 8.751315-5.0449 1.51347-4.743024-14.258749-20.960381 0.661056-20.079314 9.540284 1.225921 12.265348 0.937348 13.821797-3.345188 7.079232-4.281513-6.743588-4.862751-5.633301-8.537444-5.018294-3.673669 0.61296-18.460444 2.615571-15.399735 14.261818 5.258771 20.012799-5.564739 4.798283-13.283538 12.238742-10.381441 10.009981-19.630083 47.572482-0.083911 52.476165-22.703071 3.706415-29.618575 30.532387-27.719318 33.521464 13.340843-4.270257 22.910802-2.230808 38.693254 0.86674 0 0-1.998517 12.652158 5.348821 20.007683 7.346315 7.356548 9.634428 32.420387 28.611641 28.130687 12.084223-2.729158 18.938328-4.985548 22.323425-11.012821 1.604544 40.984437-18.274202 122.889865-30.824029 196.865693-16.430204 96.845699-13.458523 156.556639 64.132646 224.506217 25.858948 22.645766 57.486272 42.390459 93.602841 55.263651 29.101805 22.415522 54.656831 40.425711 62.497403 86.212524C450.52181 843.253426 464.426495 836.812737 484.907968 833.438896L484.907968 833.438896z" fill="#231815" p-id="7970"></path><path d="M630.770034 767.188007c3.662413 25.15696 12.372795 48.264237 18.283412 63.027475 4.447289 11.106965 25.718755 72.086805 22.50762 73.613578-7.248078 5.285377-15.70161 11.376095-22.970154 16.662495 1.907443-4.631484 3.211135-11.013845 6.915503-14.699794-9.988492-2.673899-25.986861-2.330068-65.435315 9.133008 9.228175-7.322779 33.766035-9.064446 47.936779-21.129226-3.369747-3.575432-7.473205-3.482311-19.751856-4.536316 7.876388-0.864694 18.58631-2.140757 27.074635-1.918699 12.586666 0.335644-0.517793-28.511357-14.504342-62.531172-4.377704-10.653641-13.917988-35.912931-25.137517-53.665247C614.19145 770.249739 622.692055 769.023818 630.770034 767.188007L630.770034 767.188007z" fill="#F7B400" p-id="7971"></path><path d="M512.011256 831.513034c-8.384971 21.411659-9.05012 40.772612-10.886955 54.69367-1.418302 10.807137-12.343119 69.149916-16.321734 69.482491-9.93835 2.309602-21.487384 4.959965-31.44006 7.268544 4.313236-3.373841 8.939603-8.41567 14.541181-10.437723-8.473999-5.29254-24.469298-9.81453-69.482491-11.94403 12.961196-3.453658 38.135552 2.455935 58.471716-3.543709-1.464351-4.061502-5.569856-5.218862-17.159822-9.816576 8.248871 1.63115 19.503193 3.776 27.777647 6.5246 12.273535 4.077875 14.433734-24.432459 18.432815-57.631582 1.181919-9.840112 2.932796-26.504654 1.339508-43.042305 4.03285-0.588401 8.296967-0.986467 12.814864-0.850367C504.69257 832.355215 508.631276 832.091202 512.011256 831.513034L512.011256 831.513034z" fill="#F7B400" p-id="7972"></path><path d="M646.753053 361.324302c30.480198 3.958148 63.2393 8.006348 81.728396-2.184759 37.211507-20.510126 69.737294-92.031043 97.794303-124.980479 1.805112-2.121314 4.236488-4.689812 7.136537-7.359618 2.145873-15.188934-3.617387-39.813774-12.498662-47.413869-9.275247 1.110287-18.618033 10.894118-25.979698 21.184485-21.253046 40.752146-64.131623 133.259026-108.279099 145.258315 9.954723 2.199085 17.73185 6.111185 22.508643 12.485359-20.159132-20.430308-168.989809 9.451256-185.087439 13.450337-22.595624 5.606695-74.250074 11.69025-96.012727-20.48966-5.610788-9.390881-8.236592-19.402909-11.409864-29.16525-14.839986-45.645596-27.921933-157.620877-89.786932-177.305195-11.119245-3.535523-7.185656-3.998057-16.795525-10.567683-8.983605-6.137791-23.494087-11.471262-41.455157-9.480932-12.533454 4.28356-23.626094 4.91187-35.659151 11.20418-6.965645 4.218068-8.426927 10.155291-12.405541 14.72333-2.777253 5.1503-11.238972 10.341532-14.417361 12.56006 14.237259 6.680143 19.706831 26.670429 9.036817 33.471322-0.240477 0.151449-0.515746 0.300852-0.831948 0.432859-7.776104 5.297656-9.555633 13.653975-5.725398 21.073968 6.616698 12.817933 6.838755 10.157337 10.472516 15.359826 8.572236 12.261255 24.312732 9.385764 30.646997-1.339508 6.336312-16.002462-6.800893-14.647605-7.411807-23.848151-1.402953-20.97573 35.939537 2.104941 36.729529 17.910928-7.557116-12.361539-22.560832-20.476357-22.951735-15.185864 1.289366 6.446829 1.186012 13.323447 0.462534 19.948331-0.283456 2.595105-0.774643 4.79112-1.51961 6.665817 10.659781 28.161387-9.147334 115.194602-19.131733 196.930161-10.816347 88.61934-7.17747 139.971915 55.713906 206.269877 24.394596 25.713638 52.868091 49.79101 77.81118 66.227354-20.187785-16.35141-41.151235-36.671201-58.461483-70.986751 39.530318 47.679929 89.792049 67.118654 123.293047 108.139929 13.107529 16.052604 18.938328 38.075177 30.209022 63.042825 6.154163 13.638625 28.800953 3.269463 38.863123 4.808516 10.063193 1.540076 24.910343 2.010797 24.735357-18.650779-0.224104-25.999141 35.878139-48.237631 67.969021-57.184397-18.798135 6.451946-33.513278 18.831904-44.839231 35.786041 18.964934-14.7264 41.929971-18.990516 73.100902-21.528316 30.149671-2.456958 174.599573-75.692936 172.430164-200.530153-11.507078 4.02978-23.293519 4.113691-34.248012-1.87265 63.661925 1.204431 88.812745-79.558987 88.812745-79.558987-8.104585 1.493004-27.904537-1.873674-36.251645-8.575306-8.117888 0.390903-16.35448-1.406023-24.531719-5.945409 67.586304 14.281261 97.316419-83.900875 105.507986-102.104469-56.078203 31.518854-78.469166 29.735232-92.475158 24.843828 24.053835-2.172479 57.630558-20.138666 80.068593-34.775015 14.569834-18.372439 15.855106-55.153134 11.217483-64.769143-19.190061-6.960529-64.790632 21.813818-106.151645 61.756529 23.396873-31.833009 42.868343-47.632857 66.202795-62.750159 4.128017-2.674922 10.400884-6.680143 17.535375-9.936303-0.536212-16.139585 1.601474-32.013111-5.586229-39.890522-43.927465 3.647063-72.799026 130.819464-140.973732 144.660704C715.63998 373.21512 671.139463 376.37816 646.753053 361.324302L646.753053 361.324302z" fill="#FFFFFF" p-id="7973"></path><path d="M235.913011 434.661587c-10.816347 88.61934-7.17747 139.971915 55.713906 206.269877 24.394596 25.713638 52.868091 49.79101 77.81118 66.227354-20.187785-16.35141-41.151235-36.671201-58.461483-70.986751-20.439518-21.088294-57.761542-50.106188-66.357314-93.883227-14.105253-71.820746 5.182023-125.190257 15.172561-195.129142C247.482511 383.63954 244.355287 400.966161 235.913011 434.661587L235.913011 434.661587z" fill="#DBDCDC" p-id="7974"></path><path d="M589.311807 359.588775c-31.722492 4.965082-58.866712 10.591219-65.234747 12.174274-22.595624 5.606695-74.250074 11.69025-96.012727-20.48966-5.610788-9.390881-8.236592-19.402909-11.409864-29.16525-9.779737-30.081109-18.795065-88.957031-41.510416-131.252323 31.824823 72.535013 17.149589 178.786942 83.364663 193.645348 70.082148 15.728216 96.919377-18.726503 166.280094-14.70798C619.560738 365.247658 608.888677 361.873818 589.311807 359.588775L589.311807 359.588775zM326.180897 144.582933c-10.262738-3.334955-6.703679-3.919263-16.107863-10.347672-7.150864-4.886287-17.804505-9.255805-30.919197-9.830903 9.869788 2.912329 20.336164 7.293103 26.469861 13.69286 14.060227 14.671141 24.603351 22.301935 24.603351 22.301935L326.180897 144.582933 326.180897 144.582933z" fill="#DBDCDC" p-id="7975"></path><path d="M721.292724 362.193089c2.578732-0.832971 4.988618-1.840928 7.189749-3.052522 37.211507-20.510126 69.737294-92.031043 97.794303-124.980479 1.805112-2.121314 4.236488-4.689812 7.136537-7.359618 1.825578-12.916171-2.077312-32.637328-8.744151-42.931788C806.331515 253.649977 756.176209 333.234547 721.292724 362.193089L721.292724 362.193089zM499.256768 812.05589c1.508353-0.092098 2.8847-0.074701 4.085038 0.107447 10.063193 1.540076 24.910343 2.010797 24.735357-18.650779-0.224104-25.999141 35.878139-48.237631 67.969021-57.184397-18.798135 6.451946-33.513278 18.831904-44.839231 35.786041 18.964934-14.7264 41.929971-18.990516 73.100902-21.528316 30.149671-2.456958 174.599573-75.692936 172.430164-200.530153-11.507078 4.02978-23.293519 4.113691-34.248012-1.87265 43.903929 0.829901 69.483514-37.32407 81.137948-61.08831-57.776891 60.773132-115.281583 55.819307-180.456978 20.963451-35.265178-18.85851-54.0408-39.280632-95.117334-78.613452 6.411013 13.141298 10.31595 19.957541 25.621541 36.547381 9.80532 10.626012 18.834974 19.218714 31.006178 29.909194 44.055378 45.222971 94.227058 69.684082 128.469953 77.918627-7.620561 18.168802-53.55166 69.297272-147.916864 75.439156-19.87977-1.730411-71.27123-24.936949-95.28925-77.748758 4.682649 32.277124 32.19219 62.60792 54.423517 76.058257-96.374978 30.136368-182.886307-61.331857-205.438952-109.273752 18.345834 123.428124 158.591995 162.708755 265.942955 153.736407-11.330046-5.081739-19.723204-11.927657-25.775037-20.531616 23.428595 3.520173 79.08008 8.213056 120.670314-16.433274-16.034185 42.798758-77.833693 80.357166-118.912273 95.060029 3.515057-5.575995 19.911492-20.246113 23.427572-36.089963-11.124362 11.737322-42.75578 10.273994-69.702502 24.942065-26.947745 14.668071-43.330878 28.856211-45.107337 52.223409C508.787842 800.215214 504.205477 807.045783 499.256768 812.05589L499.256768 812.05589zM815.052131 460.046744c-8.117888 0.390903-16.35448-1.406023-24.531719-5.945409 55.739489 11.779278 85.718267-52.931536 99.113345-86.196151-31.746028 46.221718-77.806063 91.192955-145.849786 74.151837C754.297418 460.386482 787.858792 465.004663 815.052131 460.046744L815.052131 460.046744zM819.773665 373.550765c21.441335-6.28924 46.12348-19.924795 63.84919-31.485085 10.81123-13.632485 14.303774-37.392632 13.494339-52.679803-14.45727 40.252773-85.950558 37.96159-110.568235 72.867588 6.735401-2.932796 40.999786-22.88522 68.24122-21.418822C853.065909 345.29728 824.446082 370.533035 819.773665 373.550765L819.773665 373.550765zM811.363112 311.680649c14.319124-15.054881 28.083615-25.369807 43.528376-35.377742 4.128017-2.674922 10.400884-6.680143 17.535375-9.936303-0.48914-14.744819 1.24434-29.259394-3.932566-37.665855C847.910493 253.129114 827.275523 284.309254 811.363112 311.680649L811.363112 311.680649z" fill="#DBDCDC" p-id="7976"></path><path d="M214.359113 197.120496c-7.797593 5.294586-9.579169 13.669324-5.743818 21.099551 6.616698 12.817933 6.838755 10.157337 10.472516 15.359826 8.572236 12.261255 24.312732 9.385764 30.646997-1.339508 6.336312-16.002462-6.800893-14.647605-7.411807-23.848151-1.209548-18.064424 26.328645-3.445472 34.494629 11.0558-0.699941-2.338255-1.77339-5.696746-3.263323-9.721409-2.956332-7.998161-12.416797-12.881378-10.939143-17.915022 1.481747-5.03569 9.761318-23.100114 15.671934-23.987321 5.90857-0.88823 11.228739 0.002047 10.638291-3.25309-0.589424-3.25923 0.591471-1.482771-8.864902-5.92699-9.462512-4.440126-11.828396-8.300037-22.169929-10.957563-13.681604-3.515057-38.815027 3.720741-41.296545 24.780383 5.609765 8.555863 5.950526 19.546172-1.422396 24.245194C214.94035 196.860577 214.663034 196.990536 214.359113 197.120496L214.359113 197.120496z" fill="#E50012" p-id="7977"></path><path d="M172.402535 186.968276c8.569166-1.027399 20.214391-4.629437 30.520107 0.576121-13.363356 0.410346-19.762089-0.776689-32.134885 4.906753 10.698666-1.152243 24.759917 0.372483 35.5691 2.307555 8.966209-8.102538 5.601578-18.917862-0.703011-24.654516C196.049095 168.796404 172.769902 178.788989 172.402535 186.968276L172.402535 186.968276z" fill="#F7B400" p-id="7978"></path><path d="M340.030323 467.827965c-0.908696 64.86124 41.764196 126.524648 89.927125 160.737868 41.393759 29.399587 89.790002 43.810808 121.623012 35.189454 13.244652-3.587712 14.741749-4.495384 28.498054-3.242857 43.838438 4.006244 126.969786-17.307178 147.006122-36.853349 42.577724-26.478048 42.401716-57.409524 42.401716-57.409524-33.92874-10.982122-98.431823-33.766035-132.26028-62.829977-3.52222-3.03001-6.579859-6.568602-9.238408-10.144034-4.831029-6.505158-6.515391-9.570983-13.529131-13.817704-3.14462-1.90028-6.246261-3.864004-9.106402-6.4192-18.174941-16.22452-33.352619-36.645618-44.725644-58.144258 1.608637 9.638521 18.597567 46.530756 41.475624 67.740824 2.669806 2.473331 5.514597 4.178159 8.303106 5.574972 6.675026 3.337002 8.084119 5.351891 12.659321 11.469216 1.434675 1.908466 2.944052 3.781116 4.576225 5.40101 34.158984 33.9533 87.147826 69.075215 113.163339 72.828702-20.553105 41.780569-102.652961 71.913866-162.151054 67.480904-13.653975-1.01512-19.088754-1.606591-32.034601 0.210801C506.692111 651.184993 383.29571 633.540124 340.030323 467.827965L340.030323 467.827965z" fill="#231815" p-id="7979"></path><path d="M728.927611 413.346119c22.11467-18.457374 68.700685-87.969541 140.42217-73.558319C831.517127 343.042937 794.490839 359.289969 728.927611 413.346119L728.927611 413.346119z" fill="#231815" p-id="7980"></path><path d="M229.608421 163.878394c0.657986-0.367367 5.16565-0.098237 7.504928-2.832512 11.18269-13.05841 20.125363-13.059434 31.3101 0 2.340301 2.734274 6.992251 2.536776 7.504928 2.832512-1.852184 0.714268-6.1777 1.667989-7.504928 3.224438-5.728468 6.690376-9.096169 9.760295-17.668405 9.760295-8.185426 0-11.30651-7.031137-13.640672-9.760295C235.786121 165.546384 231.460606 164.593685 229.608421 163.878394L229.608421 163.878394z" fill="#231815" p-id="7981"></path><path d="M287.823288 115.267257c3.083222 0.280386 6.194072 0.948605 9.236362 1.857301-1.082658-10.513448 2.282996-28.943193-2.753717-33.815153-1.595334-1.545192-9.639544 2.756787-12.120039 3.717671-5.348821 0.828878-5.139044-8.714476-8.381901-11.233855-17.014512-13.227256-6.262634 18.983353-22.983457 16.378016-12.388145-1.925862-13.756305-13.278421-14.801101 4.270257-0.447185 7.55507-9.422603 19.335371-14.340613 6.615675-9.53926-11.32493-14.547321 5.030573-13.296841 11.769045 1.170662 6.296403 3.279696 21.227464-6.28924 16.71673-13.1853-6.212492-18.228153 10.848069-15.239076 19.506263 0.8913 2.588965 5.40715 8.603959 10.025331 10.880815 1.727341 0.853437 3.894703 0.604774 5.980201-0.005117 16.626679-4.860704 15.246239-19.628036 26.657126-29.490661 5.285377-4.51892 10.113335-6.399757 15.872502-7.834432C259.957637 120.962979 271.805476 113.820302 287.823288 115.267257L287.823288 115.267257z" fill="#E50012" p-id="7982"></path><path d="M251.443729 155.10866c4.402263 0 7.953136 3.551896 7.953136 7.953136s-3.550873 7.952112-7.953136 7.952112c-4.400217 0-7.951089-3.551896-7.951089-7.952112S247.043512 155.10866 251.443729 155.10866L251.443729 155.10866z" fill="#EF8200" p-id="7983"></path><path d="M250.531963 158.679999c2.196015 0 3.966335 1.77032 3.966335 3.966335 0 2.196015-1.77032 3.966335-3.966335 3.966335-2.196015 0-3.966335-1.77032-3.966335-3.966335C246.565629 160.450319 248.335948 158.679999 250.531963 158.679999L250.531963 158.679999z" fill="#231815" p-id="7984"></path></svg>