<?xml version="1.0" standalone="no"?><!DOCTYPE svg PUBLIC "-//W3C//DTD SVG 1.1//EN" "http://www.w3.org/Graphics/SVG/1.1/DTD/svg11.dtd"><svg t="1687225279533" class="icon" viewBox="0 0 1024 1024" version="1.1" xmlns="http://www.w3.org/2000/svg" p-id="9479" xmlns:xlink="http://www.w3.org/1999/xlink" width="200" height="200"><path d="M512 63.791885c-247.13868 0-448.208115 201.069435-448.208115 448.208115s201.069435 448.208115 448.208115 448.208115 448.208115-201.069435 448.208115-448.208115S759.137657 63.791885 512 63.791885zM915.171386 504.09803 684.211177 504.09803c3.052522-112.563682 67.820642-218.192418 114.232694-275.153734C868.810498 299.984259 912.925229 402.790716 915.171386 504.09803zM525.500479 504.09803 525.500479 108.992343c100.284007 3.315512 173.231413 36.513612 238.857063 89.556689-50.630121 61.759599-121.94126 181.728948-124.974339 305.548998L525.500479 504.09803zM480.475006 504.09803l-101.877295 0c-2.987031-123.82005-73.766051-240.34802-124.253932-302.632575 62.623269-51.822272 147.33665-85.329411 226.131227-91.635023L480.475006 504.09803zM480.475006 549.123502l0 365.046067c-78.794577-6.305613-163.513074-39.066761-226.137367-90.892103 46.871517-57.81066 111.321388-151.356196 122.624828-274.15294L480.475006 549.124526zM525.500479 549.123502l115.517967 0c11.489682 122.796744 76.287477 219.680305 123.343189 277.069363-65.62565 53.045123-138.577149 85.498256-238.861156 88.813768L525.500479 549.123502zM222.293829 232.365208c46.186925 57.504692 108.48376 159.169139 111.475907 271.732821L108.828614 504.09803C111.038956 402.790716 153.85204 303.0859 222.293829 232.365208zM110.324688 549.123502l221.587748 0c-11.161201 111.540376-67.176982 191.155644-109.6227 244.0002C159.900803 728.656435 118.783337 649.40751 110.324688 549.123502zM798.447964 796.545638c-42.724057-52.435233-100.973716-135.880737-112.378463-247.421112l227.605811 0C905.065214 649.40751 862.688057 731.687468 798.447964 796.545638z" fill="#FF0000" p-id="9480"></path></svg>