<?xml version="1.0" standalone="no"?><!DOCTYPE svg PUBLIC "-//W3C//DTD SVG 1.1//EN" "http://www.w3.org/Graphics/SVG/1.1/DTD/svg11.dtd"><svg t="1687225297554" class="icon" viewBox="0 0 1024 1024" version="1.1" xmlns="http://www.w3.org/2000/svg" p-id="10852" xmlns:xlink="http://www.w3.org/1999/xlink" width="200" height="200"><path d="M512.3 409c9.4 0 19.8-1.1 47.9-7.9 28.1-6.8 46.5-3.2 82.8-8.6s29.3-20.3 29.3-20.3l-10.2-39.5-157.6 28-142-23.4-9.5 34.8s-7.1 14.9 29.3 20.3 54.7 1.8 82.8 8.6c28.1 6.8 38.5 7.9 47.9 7.9M496.6 184.7c0 7.5 0.8 135.3 0.8 135.3l29.3-2.6c-3.6-0.8-1.3-111.2 0.2-132.7" fill="#FF64CB" p-id="10853"></path><path d="M490.4 177.2h14v142.7h-14zM520 320c0-5.1-0.5-124.8 0-141.2l14 0.4c-0.5 16.1 0 139.4 0 140.7l-14 0.1z" p-id="10854"></path><path d="M453.9 126.8l39 44.7 20.3-24.2-48.5-59.2-10.8 38.7" fill="#FF64CB" p-id="10855"></path><path d="M344.2 387.5c15.2 2 26 14.2 24 27.4L296.5 890c-2 13-15.7 22-30.8 20.3l77.7-522.8h0.8zM681 387.5c-15.2 2-26 14.2-24 27.4L728.7 890c2 13 15.7 22 30.8 20.3l-77.7-522.8h-0.8zM512 357.2c8.8 0 18.5-1 44.8-7.4 26.3-6.4 43.5-3 77.5-8.1s27.4-19 27.4-19-143.9-5.9-298.6 0c0 0-6.6 13.9 27.4 19s51.2 1.7 77.5 8.1c26.3 6.4 36 7.4 44.8 7.4" fill="#B9C1C4" p-id="10856"></path><path d="M588.8 947.3c-9.1 0-17.7-0.4-25.2-1.2h-0.3c-4.7-0.7-13.1-4.3-14.6-13.3-1.2-7-23.8-176-36.1-268.2-12.5 92.2-35.4 261.2-36.5 268.2-1.5 9-9.9 12.5-14.6 13.3h-0.3c-55.1 6-163.6-12.3-185.9-23.1-8.7-4.2-10-12.7-9.4-17 37.8-279.7 69.4-473 81.4-545.7 2.8-16.8 4.6-27.8 4.8-30.2 1.4-12.5 10.8-16.7 15.6-17.1H657.1c4.8 0.4 14.1 4.6 15.6 17.1 0.3 2.3 2.1 13.4 4.8 30.2 11.9 72.7 43.6 265.9 81.3 545.3 1 4.3 0.2 12.5-9.2 17.3-17.8 9.2-102.3 24.4-160.8 24.4z m-23.4-15.1c55.3 5.9 160.9-13 177.8-21.8 1.1-0.5 2.1-1.5 2.1-1.5l-0.2-0.6-0.1-0.6c-37.7-279.4-69.4-472.6-81.3-545.3-3-18.2-4.6-28.2-4.9-30.9-0.4-3.4-1.9-4.4-2.9-4.7H369c-1 0.3-2.5 1.3-2.9 4.7-0.3 2.6-1.9 12.7-4.9 30.8-11.9 72.7-43.6 265.8-81.3 545.2-0.1 1.2 0.5 2.1 1.7 2.7 18.3 8.9 123.2 27.7 178 21.8 0.9-0.2 2.7-0.9 2.8-1.7 1.4-8.7 38.9-285.9 43.2-317.5 0.5-3.6 3.6-6.3 7.2-6.3s6.7 2.7 7.2 6.3c4.2 31.6 41.3 308.8 42.7 317.5 0 1 1.8 1.7 2.7 1.9z m-285.6-24.5v0zM494.3 179.2c-2.5 0-4.9-1-6.6-3l-0.1-0.1-39-44.8 10.6-9.2 39 44.8-3.9 3.4 4.2 7.8c-1.3 0.7-2.8 1.1-4.2 1.1z m0-14c-0.8 0-1.7 0.2-2.5 0.6l2.4 4.5 3.8-3.4c-0.9-1.1-2.3-1.7-3.7-1.7z" p-id="10857"></path><path d="M512.3 416v-14c9.2 0 19.7-1.3 46.2-7.7 16.1-3.9 29.4-4.6 43.5-5.2 11.8-0.6 23.9-1.1 39.9-3.5 18.1-2.7 22.5-7.5 23.4-9 0.6-1 0.5-1.6 0.5-1.8 0.1 0.3 0.2 0.4 0.2 0.4l12.6-6c1.4 3 2.1 8.4-0.7 13.7-4.5 8.4-15.5 13.8-33.8 16.5-16.7 2.5-29.8 3.1-41.3 3.7-14 0.7-26.1 1.3-40.9 4.9-28.1 6.7-39.1 8-49.6 8z" p-id="10858"></path><path d="M513.1 416c-10.5 0-21.5-1.3-49.5-8.1-14.8-3.6-26.9-4.2-40.9-4.9-11.6-0.6-24.6-1.2-41.3-3.7-18.3-2.7-29.4-8.1-34.1-16.5-2.9-5.3-2.4-10.6-1.1-13.6l12.8 5.6s0.1-0.1 0.2-0.4c0 0.2-0.2 0.9 0.6 2 1.2 1.9 6 6.5 23.7 9.1 16 2.4 28.2 3 39.9 3.5 14.1 0.7 27.4 1.3 43.5 5.2 26.5 6.5 37 7.7 46.2 7.7V416z" p-id="10859"></path><path d="M453.7 343c-3.6-1-4.9-256.4 7.5-255.6 0 0-4.9-5.1-13.4-0.8L431.7 97s-7.3 5.2-7.3 17v232.4l29.3-3.4z" fill="#FF64CB" p-id="10860"></path><path d="M431.4 346.3h-14V113.9c0-14.9 9.2-21.9 10.2-22.7l0.3-0.2 16.7-10.7c10.3-5.2 18.4-1.1 21.6 2.2l0.3 0.3 55.9 64.4-10.6 9.2-55.6-64c-0.6-0.4-2.2-1.1-5.1 0.3l-15.4 9.9c-0.7 0.6-4.4 4.1-4.4 11.3v232.4z" p-id="10861"></path><path d="M446.9 346.3c0-8.2-0.5-200.8 0-221.4 0.5-21.1 4.6-39.9 4.7-40.7l13.7 3c0 0.2-3.9 18.3-4.4 38-0.5 20.4 0 219 0 221l-14 0.1z" p-id="10862"></path><path d="M570.4 127.6l-39 44.8-20.3-24.2 48.5-59.3 10.8 38.7" fill="#FF64CB" p-id="10863"></path><path d="M530 180c-1.4 0-2.9-0.4-4.2-1.1l4.2-7.8-3.9-3.4 39-44.8 10.6 9.2-39.1 44.9c-1.8 2-4.2 3-6.6 3z m0-14c-1.4 0-2.8 0.6-3.8 1.7l3.8 3.4 2.4-4.5c-0.7-0.4-1.6-0.6-2.4-0.6z" p-id="10864"></path><path d="M570.5 343.9c3.6-1 4.9-256.4-7.5-255.6 0 0 4.9-5.1 13.4-0.8l16.1 10.3s7.3 5.2 7.3 17v232.4l-29.3-3.3z" fill="#FF64CB" p-id="10865"></path><path d="M606.9 347.1h-14V114.7c0-7.3-3.8-10.8-4.3-11.2l-15.5-10c-2.9-1.4-4.5-0.7-5.1-0.3l-53.1 61.1-10.6-9.2L558 83.3c3.2-3.2 11.3-7.3 21.6-2.2l0.7 0.4L596.6 92c1 0.7 10.2 7.7 10.2 22.7v232.4zM568 93.3z" p-id="10866"></path><path d="M577.3 347.2h-14c0-2 0.5-200.6 0-221-0.5-19.8-4.4-37.8-4.4-38l13.7-3c0.2 0.8 4.2 19.5 4.7 40.7 0.5 20.4 0 213.1 0 221.3z" p-id="10867"></path><path d="M512.1 194.7c-13.6 0-24.6-11-24.6-24.6s11-24.6 24.6-24.6 24.6 11 24.6 24.6-11.1 24.6-24.6 24.6z m0-35.2c-5.8 0-10.6 4.7-10.6 10.6s4.7 10.6 10.6 10.6 10.6-4.7 10.6-10.6-4.8-10.6-10.6-10.6z" fill="#CC1D75" p-id="10868"></path><path d="M512.7 364.2c-9.9 0-20.2-1.2-46.4-7.6-13.8-3.4-25.1-3.9-38.1-4.5-10.8-0.5-23.1-1.1-38.7-3.4-17.3-2.6-27.7-7.7-32-15.7-2.7-5.1-2.1-10.3-0.7-13.2l12.6 6c0.1-0.3 0.2-0.4 0.2-0.4 0 0.2-0.1 0.6 0.4 1.4 0.8 1.3 4.9 5.7 21.5 8.1 14.9 2.2 26.3 2.8 37.3 3.3 13.2 0.6 25.7 1.2 40.8 4.9 24.8 6 34.6 7.2 43.1 7.2v13.9zM655.6 942.8c-3.5 0-6.5-2.6-6.9-6.1l-68.6-538.8c-0.5-3.8 2.2-7.3 6.1-7.8 3.8-0.5 7.3 2.2 7.8 6.1L662.6 935c0.5 3.8-2.2 7.3-6.1 7.8-0.3-0.1-0.6 0-0.9 0zM368.8 941.4c-0.3 0-0.6 0-0.9-0.1-3.8-0.5-6.5-4-6.1-7.8l68.3-537c0.5-3.8 4-6.6 7.8-6.1s6.5 4 6.1 7.8l-68.3 537c-0.5 3.6-3.5 6.2-6.9 6.2zM512.1 510.3c-3.9 0-7-3.1-7-7v-92.8c0-3.9 3.1-7 7-7s7 3.1 7 7v92.8c0 3.9-3.1 7-7 7zM512.6 545.1c-3.9 0-7-3.1-7-7v-8.6c0-3.9 3.1-7 7-7s7 3.1 7 7v8.6c0 3.9-3.1 7-7 7 0.1 0 0 0 0 0z" p-id="10869"></path><path d="M512 364.2v-14c8.6 0 18.4-1.2 43.1-7.2 15.1-3.7 27.6-4.3 40.8-4.9 11-0.5 22.4-1.1 37.3-3.3 16.6-2.5 20.7-6.8 21.5-8.1 0.5-0.7 0.4-1.2 0.4-1.4 0 0 0 0.1 0.2 0.4l12.6-6c1.4 2.9 2 8.1-0.7 13.2-4.3 8-14.7 13.1-32 15.7-15.6 2.3-27.9 2.9-38.7 3.4-13.1 0.6-24.3 1.2-38.1 4.5-26.2 6.5-36.5 7.7-46.4 7.7zM641.4 399.6c-3.4 0-6.4-2.5-6.9-6l-3.6-23.8c-0.6-3.8 2.1-7.4 5.9-8 3.8-0.6 7.4 2.1 8 5.9l3.6 23.8c0.6 3.8-2.1 7.4-5.9 8-0.4 0.1-0.7 0.1-1.1 0.1zM603.1 402c-3.5 0-6.6-2.6-6.9-6.2l-2.4-21.9c-0.4-3.8 2.3-7.3 6.2-7.7 3.8-0.4 7.3 2.3 7.7 6.2l2.4 21.9c0.4 3.8-2.3 7.3-6.2 7.7-0.3-0.1-0.6 0-0.8 0zM558.4 408.2c-3.8 0-6.9-3-7-6.8l-0.6-22c-0.1-3.9 2.9-7.1 6.8-7.2 3.9-0.1 7.1 2.9 7.2 6.8l0.6 22c0.1 3.9-2.9 7.1-6.8 7.2h-0.2zM512.4 417.4c-3.9 0-7-3.2-7-7l0.1-24c0-3.9 3.1-7 7-7s7 3.2 7 7l-0.1 24c0 3.9-3.2 7-7 7zM383.8 399.6c-0.3 0-0.7 0-1.1-0.1-3.8-0.6-6.5-4.1-5.9-8l3.6-23.8c0.6-3.8 4.1-6.5 8-5.9 3.8 0.6 6.5 4.1 5.9 8l-3.6 23.8c-0.6 3.5-3.5 6-6.9 6z" p-id="10870"></path><path d="M422.1 402h-0.8c-3.8-0.4-6.6-3.9-6.2-7.7l2.4-21.9c0.4-3.8 3.9-6.6 7.7-6.2 3.8 0.4 6.6 3.9 6.2 7.7l-2.4 21.9c-0.3 3.5-3.4 6.2-6.9 6.2z" p-id="10871"></path><path d="M466.7 408.2h-0.2c-3.9-0.1-6.9-3.3-6.8-7.2l0.6-22c0.1-3.9 3.3-6.9 7.2-6.8 3.9 0.1 6.9 3.3 6.8 7.2l-0.6 22c-0.1 3.8-3.2 6.8-7 6.8z" p-id="10872"></path></svg>